<?xml version="1.0" encoding="UTF-8" standalone="no"?>
<!-- Generator: Adobe Illustrator 25.2.1, SVG Export Plug-In . SVG Version: 6.00 Build 0)  -->

<svg
   version="1.1"
   id="svg8"
   inkscape:version="1.2.1 (9c6d41e, 2022-07-14)"
   sodipodi:docname="UGent_Racing_Logo.svg"
   x="0px"
   y="0px"
   viewBox="0 0 343.93699 230.55117"
   xml:space="preserve"
   width="91mm"
   height="61mm"
   xmlns:inkscape="http://www.inkscape.org/namespaces/inkscape"
   xmlns:sodipodi="http://sodipodi.sourceforge.net/DTD/sodipodi-0.dtd"
   xmlns="http://www.w3.org/2000/svg"
   xmlns:svg="http://www.w3.org/2000/svg"><defs
   id="defs118" />
<style
   type="text/css"
   id="style92">
	.st0{opacity:0.998;fill:#FFFFFF;enable-background:new    ;}
	.st1{fill:#2666AC;}
	.st2{fill:#E42017;}
	.st3{opacity:0.998;enable-background:new    ;}
</style>
<sodipodi:namedview
   bordercolor="#666666"
   borderopacity="1.0"
   id="base"
   inkscape:current-layer="layer1"
   inkscape:cx="129.28571"
   inkscape:cy="142.85714"
   inkscape:document-rotation="0"
   inkscape:document-units="mm"
   inkscape:guide-bbox="true"
   inkscape:pageopacity="0.0"
   inkscape:pageshadow="2"
   inkscape:window-height="916"
   inkscape:window-maximized="1"
   inkscape:window-width="1512"
   inkscape:window-x="0"
   inkscape:window-y="38"
   inkscape:zoom="1.4"
   pagecolor="#ffffff"
   showgrid="false"
   showguides="true"
   inkscape:showpageshadow="2"
   inkscape:pagecheckerboard="0"
   inkscape:deskcolor="#d1d1d1">
	<sodipodi:guide
   id="guide964"
   orientation="0,-1"
   position="0.13610979,-33.447431"
   inkscape:locked="false" />
	<sodipodi:guide
   id="guide966"
   orientation="0,-1"
   position="0.15525603,-33.458622"
   inkscape:locked="false" />
	<sodipodi:guide
   id="guide968"
   orientation="0,-1"
   position="0.31615855,-33.470681"
   inkscape:locked="false" />
	<sodipodi:guide
   id="guide970"
   orientation="0,-1"
   position="0.28980324,-33.5013"
   inkscape:locked="false" />
</sodipodi:namedview>
<g
   id="layer1"
   transform="translate(-18.963007,-81.72459)"
   inkscape:groupmode="layer"
   inkscape:label="Layer 1">
	
	
	
		
	
		
	
	
	
	
	
	
	
	
	
	
	
	
	<g
   id="g409"
   transform="matrix(0.66506422,0,0,0.66506422,29.753189,54.809445)"><path
     id="rect865"
     sodipodi:nodetypes="ccccc"
     class="st0"
     d="m 347.2,81.7 h 64.1 l -14.8,54 h -64.2 z" /><rect
     id="rect861"
     x="48.200001"
     y="181.7"
     class="st0"
     width="382.10001"
     height="65.699997" /><path
     id="path903"
     sodipodi:nodetypes="sssccccssssccsssccssssccccsscsssssccsscccscccccccccccsccccsccccccccscccscccccccsccsccscsccsssccsccccscsccscsccccccssccsscccssssssscsscsscssssssscccscccccssccsssccsccccccccccssssscsccccccccccc"
     class="st1"
     d="m 19,254.2 c 0,-0.5 19.7,-74.3 20.7,-77.6 0.4,-1.2 11.2,-1.3 213.2,-1.3 h 212.8 l -10.6,39.6 -10.6,39.6 -212.8,0.2 C 114.7,254.7 19,254.5 19,254.2 Z m 56.7,-20.4 c 6.4,-3.1 9.3,-8.4 13.7,-24.7 1.7,-6.4 3.5,-13.3 3.7,-14 h -7.4 c 0,1.9 -7.2,26.2 -8.3,27.9 -3.5,5.7 -12,5.2 -12,-0.7 0,-0.8 1.5,-7.1 3.4,-14 1.9,-6.9 3.4,-12.9 3.4,-13.2 h -7.4 l -3.5,13.1 c -1.9,7.4 -3.5,15 -3.5,16.9 0,4.3 1.6,7.5 4.3,9 3.2,1.7 9.8,1.5 13.6,-0.3 z m 35.2,0.6 c 2.3,-0.9 7.5,-3.3 9.2,-6.4 l 4,-16.5 -13.8,-0.2 -0.6,3.6 c -0.8,4.6 -1.1,4.7 2.5,4.7 h 3.3 l -0.7,2.9 c -0.9,3.4 -2.8,4.6 -7.6,4.6 -4.7,0 -6.8,-2.5 -6.7,-7.8 0.1,-8.1 6.5,-17.5 12.8,-17.5 2.3,0 4.2,0.2 5.7,1.9 l 2,1.8 5.6,-6.1 c -3.7,-4.1 -12.3,-5.5 -18.5,-3.1 -4.7,1.8 -10.7,8.8 -13.1,14.2 -2.7,5.9 -3.5,13.6 -0.4,18.6 5.9,7.3 14.1,5.9 16.3,5.3 z m 40.8,-7.3 h -8.6 c -4.8,0 -8.6,-0.1 -8.6,-0.2 l 2.3,-8 h 7.4 7.4 l 1.8,-7.7 -14.3,-0.5 1.5,-7.6 h 8.8 8.8 l 1.7,-8 h -24.1 l -5.2,19.2 c -2.9,10.5 -5.4,20.6 -5.4,21.1 h 24.3 z m 15,-6.2 c 1.4,-5.2 2.6,-11.6 2.9,-11.4 0.3,0.2 2.4,7.7 4.6,14.2 l 4,11.8 h 5.7 c 0.6,-1 10.9,-39 10.9,-40.3 h -6.6 L 181.7,219 173,195.2 h -6.4 c -1.3,3.3 -11.2,40.4 -10.7,40.4 h 7 z m 40.6,11.2 c 0,0 2.3,-8.7 4.2,-15.4 1.8,-6.7 3.5,-13.1 3.5,-13.3 h 9.8 l 2,-8.4 h -26.5 l -2,8.4 h 9.3 c 0,0.3 -2.1,8.2 -4.3,16.3 -2.2,8.1 -4.1,15.5 -3.9,15.7 h 7.1 z m 36.7,-3.2 1.7,-6.4 h 2.8 c 2.5,0 2.8,0.2 3.3,2.3 0.3,1.3 1,4.1 1.6,6.4 l 1.2,4.2 h 8.4 c 0,-0.5 -1.2,-4.8 -2.2,-8.3 -1.3,-4.3 -1.6,-6.5 -1,-6.6 2.2,-0.7 6.3,-5.3 7.9,-8.7 2.1,-4.5 2.3,-9.9 -0.3,-13.6 -4.4,-3.8 -13.1,-3 -22,-2.9 0,0.2 -2.4,9.2 -5.2,20 -2.9,10.7 -5.4,20 -5.4,20.2 l 7.4,-0.1 z m 6.7,-25.5 c 0,-0.5 6.7,-0.5 8.8,0.1 2.2,0.6 2.8,2.7 1.7,5.9 -1.1,3.4 -4,4.9 -9.3,4.9 h -4.1 z m 24.4,27.4 2.7,-4.5 h 6.7 6.7 l 0.3,9.1 h 8.1 c 0,-0.3 -0.8,-9.8 -1.6,-20.3 -0.8,-10.5 -1.5,-19.7 -1.5,-20 h -7 l -11.9,19.5 c -6.5,10.7 -12.7,20.8 -12.4,20.8 h 7.1 z m 9.8,-16.3 c 4,-6.9 4.6,-7.7 5.1,-7.2 0.3,0.3 0.5,2.8 0.5,5.6 v 5.1 h -3.8 -3.8 z m 41.9,19.3 c 1.7,-0.8 4,-2.4 5.2,-3.5 l 2.2,-1.9 -1.4,-2.5 c -0.8,-1.4 -1.6,-2.5 -2,-2.5 -0.3,0 -1.8,0.8 -3.4,1.9 -3.7,2.5 -8,2.5 -10.5,0 -3.4,-3.4 -1.9,-13.2 2.9,-18.3 3.9,-4.2 9.5,-5.1 13,-2 l 2.1,1.8 3.1,-3.1 c 3,-3 3.1,-3.1 2,-4.9 -1.8,-2.7 -5.4,-3.7 -10,-3.7 -8,0 -15.8,5.5 -20.5,15.3 -2.1,4.3 -2.4,5.8 -2.4,11 0,6.7 1.3,9.8 5.3,12.4 3.3,2.1 10.3,2 14.4,0 z m 19.5,-2.4 c 3.1,-10.9 9.6,-35.5 9.6,-36.3 h -7.2 l -5.1,18.9 c -2.8,10.3 -5.5,20.7 -5.5,21.5 l 7.2,-0.1 z m 20.7,-20.1 8.7,24.1 6,-0.1 5.1,-19.3 c 2.8,-10.6 5.4,-20.4 5.6,-20.9 h -7.2 l -3.2,11.8 -3.2,12.1 -4,-11.5 c -2.2,-6.3 -4.4,-12.1 -4.8,-12.4 h -6.2 l -5.2,18.9 c -2.8,10.3 -5.4,20.7 -5.4,21.5 l 7,-0.1 z m 47,21.7 c 2.5,-1.2 4.9,-2.7 5.3,-3.2 0.4,-0.5 1.8,-4.7 3,-9.4 l 2.2,-8 h -14.4 l -0.9,3.6 -0.9,3.6 h 3.4 3.4 l -0.5,2.4 c -0.7,3.4 -2.9,5.1 -7,5.1 -4.2,0 -5.8,-0.8 -7,-3.7 -2.1,-5 1.5,-15 6.7,-18.5 3.4,-2.3 8.1,-2.4 10.9,-0.2 l 2,1.6 6.5,-6.6 c -3.7,-5.4 -12.5,-5.3 -18.8,-3.5 -12.1,5.4 -19.8,24.2 -14,33.8 3.7,5.9 11.9,7.1 20.1,3 z M 278.1,91.5 l 1.1,0.8 c -7.3,26.3 -13.6,46.3 -21.8,74.4 h -7.3 c 10.3,-24.3 17.4,-51 28,-75.2 z" /><path
     id="path907"
     sodipodi:nodetypes="ccccssssscccccccccccccccsscsscccccccccccccsscssssccccccsscccsscssccccsscscsssccccssssccssssssssssscsssssscscccsscscsccsscssccccssccccccs"
     class="st2"
     d="m 183.4,335 -10.9,-10.9 h -5.7 -5.7 l -2.3,3.6 c -3.1,5 -7.6,7.2 -13.8,6.7 -12,-0.9 -17.9,-15.1 -9.8,-24 3.4,-3.8 6.4,-5.1 11.6,-5.1 5.2,0 10.3,3 12.5,7.5 l 1.6,3 h 7.3 7.3 l 11.2,11.2 11.2,11.2 h 22.3 22.3 v -7.5 -7.5 H 220.2 197.9 L 186.6,312 175.3,300.8 h -18.5 -18.5 l -1.5,2.9 c -2.7,5.2 -7.9,8.4 -13.9,8.3 -5.5,0 -12.6,-5.7 -13.6,-10.9 -2.2,-12 6.6,-21 17.9,-18.3 4.1,1 9.1,5.3 9.9,8.5 l 0.5,1.9 h 20.7 20.7 l 11.2,11.3 11.2,11.3 20.3,-0.2 20.2,-0.2 0.2,-7.3 0.2,-7.3 h -17.5 -17.5 l -11.2,-11.2 -11.2,-11.2 h -35.4 c -30.6,0 -35.4,0.1 -35.4,1.1 0,1.8 -4.7,6.5 -7.9,8 -5.7,2.6 -12.6,1.1 -17,-3.6 -2.6,-2.8 -3.6,-5.5 -3.6,-10.1 0,-8.4 6.1,-14.3 14.6,-14.3 6.5,0 11.6,3.4 13.8,9.4 l 0.8,2 h 37 37 l 10.9,10.9 10.9,10.9 22.5,-0.3 c 20.1,-0.3 23.1,-0.5 28.3,-1.9 16.3,-4.6 31.5,-14.1 40.8,-25.5 l 3.7,-4.6 h 30.2 30.2 l -2.6,6.2 c -1.5,3.4 -3.6,7.9 -4.9,10.1 l -2.2,3.9 -7.7,-2.6 c -6.2,-2.1 -7.8,-2.4 -8.4,-1.6 -0.4,0.5 -4.7,5.9 -9.6,12 l -8.9,11 3.9,6.9 3.9,6.9 -2.9,2.5 c -4.2,3.6 -17.8,12.7 -22.8,15.2 l -4.3,2.2 -4.7,-6.2 c -2.6,-3.4 -4.8,-6.3 -4.9,-6.4 -0.3,-0.4 -28.3,8.2 -29,8.8 -0.3,0.3 -0.9,3.8 -1.2,7.8 -0.3,4 -0.9,7.5 -1.2,7.8 -0.3,0.3 -14.9,0.6 -32.5,0.8 l -32,0.2 z m -34.1,-8.8 c 2,-0.9 4.1,-4.1 4.1,-6.2 0,-2.1 -2.1,-5.3 -4.1,-6.2 -3,-1.4 -4.7,-1.1 -7.3,1.3 -3.9,3.5 -2.9,9.4 2,11.4 2.1,0.7 3.1,0.7 5.3,-0.3 z m -21.7,-23.5 c 5.6,-3.9 2.8,-12.4 -4.1,-12.4 -3.3,0 -6.9,3.4 -6.9,6.6 0,3.5 3.2,6.9 6.6,6.9 1.6,0 3.6,-0.5 4.4,-1.1 z M 105.2,279 c 3.4,-3.2 2.7,-8.7 -1.3,-10.8 -4,-2.1 -7.4,-1.1 -9.3,2.6 -1.5,3 -1.4,4.7 0.5,7.1 2.8,3.7 6.8,4.1 10.1,1.1 z m 14.1,-113.4 c 1.2,-4 8,-17.2 12.1,-23.4 3.6,-5.4 8.8,-12.4 13,-17.1 0.3,-0.3 3.6,2.3 7.4,5.9 3.8,3.6 6.8,6.3 6.8,6 0,-0.3 -2.2,-3.5 -4.9,-7.2 -2.7,-3.7 -5.1,-7.2 -5.3,-7.7 -0.5,-1.3 11.2,-11.7 19.6,-17.3 6.4,-4.3 18.2,-10.9 19.6,-10.9 0.5,0 2.5,3.7 4.4,8.3 2,4.5 3.7,8.1 3.8,8 0.2,-0.2 -0.6,-4.1 -1.6,-8.8 -1.1,-4.7 -1.8,-8.9 -1.6,-9.4 0.4,-1.1 12.8,-5.1 21.8,-7.1 6.7,-1.4 19.2,-3 23.6,-3 h 2.3 V 91 c 0,5 0.1,9 0.3,8.8 0.2,-0.2 0.9,-3.5 1.5,-7.4 0.7,-3.9 1.4,-7.9 1.6,-8.8 l 0.4,-1.7 h 26.2 c 14.4,0 26.2,0.1 26.2,0.3 0,0.2 -1.2,3.1 -2.7,6.6 -3.4,7.9 -4.1,9.6 -3.8,9.6 0.1,0 2.7,-3.7 5.7,-8.3 l 5.5,-8.3 45.8,-0.1 -14.9,54 -62.7,-0.5 c 0,-0.3 3,-11.2 6.5,-23.3 3.5,-12.1 6.4,-22 6.4,-22.2 0,-0.3 -4.4,-1.5 -5.6,-1.5 -0.4,0 -4.6,10.4 -9.4,23.2 l -8.7,23.2 c -37.8,0.3 -57.3,4.7 -80.5,32.6 h -29.7 -29.7 z" /><path
     id="rect909"
     sodipodi:nodetypes="ccccc"
     class="st3"
     d="M 347.2,81.7 H 360 l -3,10.8 h -12.9 z" /><path
     id="path936"
     sodipodi:nodetypes="ccccc"
     class="st3"
     d="m 357,92.5 h 12.8 l -2.9,10.8 H 354 Z" /><path
     id="path938"
     sodipodi:nodetypes="ccccc"
     class="st3"
     d="M 341.2,103.3 H 354 l -2.9,10.8 h -12.9 z" /><path
     id="path940"
     sodipodi:nodetypes="ccccc"
     class="st3"
     d="m 351.1,114.1 h 12.8 l -2.9,10.8 h -12.9 z" /><path
     id="path942"
     sodipodi:nodetypes="ccccc"
     class="st3"
     d="m 335.3,124.9 h 12.8 l -2.9,10.8 h -12.9 z" /><path
     id="path944"
     sodipodi:nodetypes="ccccc"
     class="st3"
     d="m 372.8,81.7 h 12.8 l -2.9,10.8 h -12.9 z" /><path
     id="path946"
     sodipodi:nodetypes="ccccc"
     class="st3"
     d="m 382.7,92.5 h 12.8 l -2.9,10.8 h -12.9 z" /><path
     id="path948"
     sodipodi:nodetypes="ccccc"
     class="st3"
     d="m 366.9,103.3 h 12.8 l -2.9,10.8 h -12.9 z" /><path
     id="path950"
     sodipodi:nodetypes="ccccc"
     class="st3"
     d="m 376.7,114.1 h 12.8 l -2.9,10.8 h -12.9 z" /><path
     id="path952"
     sodipodi:nodetypes="ccccc"
     class="st3"
     d="m 361,124.9 h 12.8 l -2.9,10.8 H 358 Z" /><path
     id="path954"
     sodipodi:nodetypes="ccccc"
     class="st3"
     d="m 398.5,81.7 h 12.8 l -2.9,10.8 h -12.9 z" /><path
     id="path958"
     sodipodi:nodetypes="ccccc"
     class="st3"
     d="m 392.5,103.3 h 12.8 l -2.9,10.8 h -12.9 z" /><path
     id="path962"
     sodipodi:nodetypes="ccccc"
     class="st3"
     d="m 386.6,124.9 h 12.8 l -2.9,10.8 h -12.9 z" /></g>
</g>
</svg>
